# xmcd
#
# Track frame offsets:
# 183
# 12390
# 23478
# 38205
# 53245
# 63873
# 80308
# 92423
# 101013
# 114415
# 137940
# 150998
# 162800
# 184978
# 196618
# 208558
# 220268
# 235200
# 244888
# 258450
#
# Disc length: 3673 seconds
#
#
# Revision: 0
# Processed by: cddbd v1.5PL3 Copyright (c) Steve Scherf et al.
# Submitted via: FreeRIP 2.51 
#
DISCID=020e5714
DTITLE=The Platters - The Platters Collection
DYEAR=1988
DGENRE=Vocal
TTITLE0=Only You
TTITLE1=Smoke Gets In Your Eyes
TTITLE2=The Great Pretender
TTITLE3=My Prayer
TTITLE4=Red Sails In The Sunset
TTITLE5=I Love You Because
TTITLE6=Twilight Time
TTITLE7=Sweet, Sweet Lovin'
TTITLE8=Harbour Lights
TTITLE9=My Way
TTITLE10=I'm Sorry
TTITLE11=With This Ring
TTITLE12=Unchained Melody
TTITLE13=Heaven On Earth
TTITLE14=I Love You A Thousand Times
TTITLE15=The Magic Touch
TTITLE16=Why
TTITLE17=Doesn't Ring A Bell
TTITLE18=Alone In The Night
TTITLE19=If I Had Love
EXTD=
EXTT0=
EXTT1=
EXTT2=
EXTT3=
EXTT4=
EXTT5=
EXTT6=
EXTT7=
EXTT8=
EXTT9=
EXTT10=
EXTT11=
EXTT12=
EXTT13=
EXTT14=
EXTT15=
EXTT16=
EXTT17=
EXTT18=
EXTT19=
PLAYORDER=
